<?xml version="1.0" encoding="UTF-8" standalone="no"?><!DOCTYPE svg PUBLIC "-//W3C//DTD SVG 1.1//EN" "http://www.w3.org/Graphics/SVG/1.1/DTD/svg11.dtd"><svg width="100%" height="100%" viewBox="0 0 584 584" version="1.1" xmlns="http://www.w3.org/2000/svg" xmlns:xlink="http://www.w3.org/1999/xlink" xml:space="preserve" xmlns:serif="http://www.serif.com/" style="fill-rule:evenodd;clip-rule:evenodd;stroke-linejoin:round;stroke-miterlimit:2;"><g><path d="M543.75,44.792l-166.667,0c-9.143,0 -16.666,7.523 -16.666,16.666l0,166.667c0,9.143 7.523,16.667 16.666,16.667l166.667,0c9.143,0 16.667,-7.524 16.667,-16.667l0,-166.667c0,-9.143 -7.524,-16.666 -16.667,-16.666Zm-14.583,166.666l-135.417,0l0,-135.416l135.417,0l0,135.416Z" style="fill:#aab630;fill-rule:nonzero;"/><path d="M466.667,151.042l-185.417,0l0,41.666l187.492,0l0,304.167l-304.167,0l0,-143.75l-43.742,0l0,143.75c0,23.008 18.655,41.667 41.667,41.667l304.167,0c23.012,0 41.666,-18.659 41.666,-41.667l0,-304.167c0,-23.008 -18.658,-41.666 -41.666,-41.666Z" style="fill:#789831;fill-rule:nonzero;"/><path d="M183.333,325.513l-62.5,-41.517l0,33.712l-62.5,0l0,-187.5l187.5,0l0,20.834l-83.333,0c-23.012,0 -41.667,18.658 -41.667,41.666l0,43.754l61.459,36.967l98.958,-77.912l0,-75.725c0,-13.715 -11.285,-25 -25,-25l-208.333,0c-13.715,0 -25,11.285 -25,25l0,208.333c0,13.715 11.285,25 25,25l208.333,0c13.715,0 25,-11.285 25,-25l0,-81.833l-97.917,79.221Z" style="fill:#296833;fill-rule:nonzero;"/></g></svg>